<?xml version="1.0" encoding="UTF-8" standalone="no"?>
<!-- Created with Inkscape (http://www.inkscape.org/) -->

<svg
   xmlns:dc="http://purl.org/dc/elements/1.1/"
   xmlns:cc="http://creativecommons.org/ns#"
   xmlns:rdf="http://www.w3.org/1999/02/22-rdf-syntax-ns#"
   xmlns:svg="http://www.w3.org/2000/svg"
   xmlns="http://www.w3.org/2000/svg"
   xmlns:sodipodi="http://sodipodi.sourceforge.net/DTD/sodipodi-0.dtd"
   xmlns:inkscape="http://www.inkscape.org/namespaces/inkscape"
   width="100"
   height="106.99999"
   id="svg2"
   version="1.1"
   inkscape:version="0.48.4 r9939"
   sodipodi:docname="logo.svg">
  <defs
     id="defs4" />
  <sodipodi:namedview
     id="base"
     pagecolor="#ffffff"
     bordercolor="#666666"
     borderopacity="1.0"
     inkscape:pageopacity="0.0"
     inkscape:pageshadow="2"
     inkscape:zoom="5.676593"
     inkscape:cx="60.149323"
     inkscape:cy="64.690443"
     inkscape:document-units="px"
     inkscape:current-layer="g3123"
     showgrid="false"
     inkscape:window-width="1440"
     inkscape:window-height="848"
     inkscape:window-x="0"
     inkscape:window-y="27"
     inkscape:window-maximized="1"
     inkscape:snap-grids="false"
     showguides="true"
     inkscape:guide-bbox="true"
     inkscape:snap-to-guides="false"
     fit-margin-top="0"
     fit-margin-left="0"
     fit-margin-right="0"
     fit-margin-bottom="0">
    <inkscape:grid
       type="xygrid"
       id="grid2986"
       empspacing="5"
       visible="true"
       enabled="true"
       snapvisiblegridlinesonly="true"
       originx="996.33506px"
       originy="1325.4939px" />
  </sodipodi:namedview>
  <metadata
     id="metadata7">
    <rdf:RDF>
      <cc:Work
         rdf:about="">
        <dc:format>image/svg+xml</dc:format>
        <dc:type
           rdf:resource="http://purl.org/dc/dcmitype/StillImage" />
        <dc:title></dc:title>
      </cc:Work>
    </rdf:RDF>
  </metadata>
  <g
     inkscape:label="Calque 1"
     inkscape:groupmode="layer"
     id="layer1"
     transform="translate(996.33506,-2270.8561)">
    <g
       transform="matrix(0.28059942,0,0,0.28059942,-746.90394,1832.3001)"
       id="g3123">
      <path
         sodipodi:nodetypes="cccccscccccccccssccccc"
         inkscape:connector-curvature="0"
         id="path3135"
         d="m -888.92244,1648.7503 0,37.8816 21.7266,0 0,146.164 c 0,0 0,26.8623 13.82672,54.4592 13.79784,27.5956 45.53629,56.997 97.63062,56.997 52.09433,0 84.11449,-29.4014 97.91323,-56.997 13.79784,-27.5969 13.54321,-54.4592 13.54415,-54.4592 l 0,-67.1567 0,-21.7265 -21.44488,21.4449 -21.72749,-21.4449 0,21.7265 0,67.1567 c 0,0 -0.0903,17.9586 -8.74681,35.2715 -8.6565,17.3128 -21.81507,33.0134 -59.5382,33.0134 -37.72314,0 -50.59905,-15.7006 -59.25559,-33.0134 -8.6565,-17.3129 -8.74771,-35.2715 -8.74677,-35.2715 l 0,-146.164 0,-37.3171 0,-0.56 z"
         style="font-size:medium;font-style:normal;font-variant:normal;font-weight:normal;font-stretch:normal;text-indent:0;text-align:start;text-decoration:none;line-height:normal;letter-spacing:normal;word-spacing:normal;text-transform:none;direction:ltr;block-progression:tb;writing-mode:lr-tb;text-anchor:start;baseline-shift:baseline;color:#000000;fill:#000000;fill-opacity:1;stroke:none;stroke-width:9.60000038;marker:none;visibility:visible;display:inline;overflow:visible;enable-background:accumulate;font-family:Sans;-inkscape-font-specification:Sans" />
      <path
         sodipodi:nodetypes="cccsscccccccccccccccccc"
         inkscape:connector-curvature="0"
         id="path3137"
         d="m -777.18338,1562.9256 0,45.546 0,206.548 0,21.4449 c 0,28.8019 43.17147,28.8697 43.17147,0 l 0,-21.4449 0,-154.6288 52.76613,53.0477 15.51978,15.2362 15.23623,-15.2362 52.76613,-53.0477 0,194.4851 65.18113,0 0,-37.8816 -21.72704,0 0,-208.5227 0,-45.546 -7.33641,0 -29.62732,30.026 -74.49272,74.493 -74.49272,-74.493 -29.91087,-30.026 z"
         style="font-size:medium;font-style:normal;font-variant:normal;font-weight:normal;font-stretch:normal;text-indent:0;text-align:start;text-decoration:none;line-height:normal;letter-spacing:normal;word-spacing:normal;text-transform:none;direction:ltr;block-progression:tb;writing-mode:lr-tb;text-anchor:start;baseline-shift:baseline;color:#000000;fill:#000000;fill-opacity:1;stroke:none;stroke-width:9.60000038;marker:none;visibility:visible;display:inline;overflow:visible;enable-background:accumulate;font-family:Sans;-inkscape-font-specification:Sans" />
    </g>
  </g>
</svg>
